<svg width="1920" height="636" viewBox="0 0 1920 636" fill="none" xmlns="http://www.w3.org/2000/svg">
<rect width="1920" height="636" fill="#FDF8EE"/>
<path d="M703.687 558.688C703.687 561.361 701.516 563.532 698.844 563.532C696.171 563.532 694 561.361 694 558.688C694 556.016 696.171 553.845 698.844 553.845C701.516 553.845 703.687 556.01 703.687 558.688Z" stroke="#4D2C5E" stroke-opacity="0.1" stroke-width="2" stroke-miterlimit="10" stroke-linecap="round" stroke-linejoin="round"/>
<path d="M750.68 600.696C753.355 600.696 755.524 598.528 755.524 595.853C755.524 593.178 753.355 591.009 750.68 591.009C748.005 591.009 745.836 593.178 745.836 595.853C745.836 598.528 748.005 600.696 750.68 600.696Z" stroke="#4D2C5E" stroke-opacity="0.1" stroke-width="2" stroke-miterlimit="10" stroke-linecap="round" stroke-linejoin="round"/>
<path d="M732.444 585.895C738.149 585.895 742.774 581.27 742.774 575.565C742.774 569.86 738.149 565.235 732.444 565.235C726.739 565.235 722.114 569.86 722.114 575.565C722.114 581.27 726.739 585.895 732.444 585.895Z" stroke="#4D2C5E" stroke-opacity="0.1" stroke-width="2" stroke-miterlimit="10" stroke-linecap="round" stroke-linejoin="round"/>
<path d="M750.443 575.565L746.998 581.587L745.171 588.291L738.472 590.112L732.445 593.563L726.417 590.112L719.713 588.291L717.891 581.587L714.44 575.565L717.891 569.537L719.713 562.833L726.417 561.011L732.445 557.56L738.472 561.011L745.171 562.833L746.998 569.537L750.443 575.565Z" stroke="#4D2C5E" stroke-opacity="0.1" stroke-width="2" stroke-miterlimit="10" stroke-linecap="round" stroke-linejoin="round"/>
<path d="M745.836 595.853C745.836 593.18 748.007 591.009 750.68 591.009C752.123 591.009 753.42 591.646 754.306 592.65C757.993 587.936 760.198 582.01 760.198 575.559C760.198 560.228 747.77 547.8 732.439 547.8C717.107 547.8 704.68 560.228 704.68 575.559C704.68 590.891 717.107 603.318 732.439 603.318C737.829 603.318 742.853 601.779 747.111 599.123C746.327 598.26 745.836 597.116 745.836 595.853Z" stroke="#4D2C5E" stroke-opacity="0.1" stroke-width="2" stroke-miterlimit="10" stroke-linecap="round" stroke-linejoin="round"/>
<path d="M732.444 538C719.492 538 708.068 544.558 701.319 554.533C702.734 555.378 703.687 556.923 703.687 558.694C703.687 561.367 701.516 563.538 698.844 563.538C698.184 563.538 697.558 563.402 696.988 563.165C695.63 567.05 694.885 571.217 694.885 575.565C694.885 596.309 711.705 613.13 732.45 613.13C753.195 613.13 770.015 596.309 770.015 575.565C770.015 554.82 753.189 538 732.444 538Z" stroke="#4D2C5E" stroke-opacity="0.1" stroke-width="2" stroke-miterlimit="10" stroke-linecap="round" stroke-linejoin="round"/>
<path d="M303.841 143.226L280.535 135.31C278.073 134.476 276.758 131.8 277.592 129.337C278.426 126.874 281.103 125.559 283.559 126.394L306.865 134.309C309.327 135.143 310.642 137.82 309.808 140.276C308.974 142.745 306.304 144.067 303.841 143.226Z" stroke="#4D2C5E" stroke-opacity="0.1" stroke-width="3" stroke-miterlimit="10"/>
<path d="M300.778 152.249L277.472 144.334C275.009 143.499 273.694 140.823 274.529 138.367C275.363 135.904 278.039 134.589 280.502 135.424L303.808 143.332C306.271 144.167 307.585 146.843 306.751 149.306C305.91 151.769 303.241 153.083 300.778 152.249Z" stroke="#4D2C5E" stroke-opacity="0.1" stroke-width="3" stroke-miterlimit="10"/>
<path d="M280.061 102.053C280.088 102.133 280.108 102.207 280.135 102.287C280.655 103.949 283.726 114.48 282.444 126.167L307.445 134.416C313.372 124.265 322.108 117.637 323.517 116.609C323.583 116.563 323.65 116.516 323.71 116.469C324.391 115.982 325.052 115.461 325.692 114.907C329.457 111.657 332.42 107.379 334.088 102.32C339.007 87.4234 330.918 71.3589 316.022 66.44C301.125 61.5212 285.06 69.6102 280.142 84.5068C278.466 89.5725 278.299 94.7716 279.394 99.6237C279.581 100.438 279.801 101.252 280.061 102.053Z" stroke="#4D2C5E" stroke-opacity="0.1" stroke-width="3" stroke-miterlimit="10"/>
<path d="M278.747 144.881C278.467 149.82 281.51 154.525 286.435 156.153C291.294 157.755 296.467 155.853 299.216 151.829L278.747 144.881Z" stroke="#4D2C5E" stroke-opacity="0.1" stroke-width="3" stroke-miterlimit="10"/>
<path d="M290.273 128.616L297.701 106.104C298.435 103.888 297.227 101.499 295.011 100.765C292.795 100.031 290.406 101.239 289.672 103.455C288.938 105.67 290.146 108.06 292.362 108.794L301.278 111.737" stroke="#4D2C5E" stroke-opacity="0.1" stroke-width="3" stroke-miterlimit="10"/>
<path d="M300.07 131.853L307.499 109.341C308.233 107.125 310.622 105.924 312.838 106.652C315.054 107.386 316.255 109.775 315.528 111.991C314.793 114.207 312.404 115.408 310.188 114.681L301.272 111.737" stroke="#4D2C5E" stroke-opacity="0.1" stroke-width="3" stroke-miterlimit="10"/>
<path d="M339.368 110.075L346.896 112.565" stroke="#4D2C5E" stroke-opacity="0.1" stroke-width="3" stroke-miterlimit="10" stroke-linecap="round"/>
<path d="M342.818 100.591L350.66 99.4102" stroke="#4D2C5E" stroke-opacity="0.1" stroke-width="3" stroke-miterlimit="10" stroke-linecap="round"/>
<path d="M334.102 118.211L339.694 123.831" stroke="#4D2C5E" stroke-opacity="0.1" stroke-width="3" stroke-miterlimit="10" stroke-linecap="round"/>
<path d="M269.442 86.9963L261.914 84.5135" stroke="#4D2C5E" stroke-opacity="0.1" stroke-width="3" stroke-miterlimit="10" stroke-linecap="round"/>
<path d="M272.319 77.3188L266.727 71.6992" stroke="#4D2C5E" stroke-opacity="0.1" stroke-width="3" stroke-miterlimit="10" stroke-linecap="round"/>
<path d="M268.835 96.6671L261 97.8484" stroke="#4D2C5E" stroke-opacity="0.1" stroke-width="3" stroke-miterlimit="10" stroke-linecap="round"/>
<path d="M190.993 322.578L121.788 301.906C116.755 300.404 113.898 295.107 115.4 290.073L129.221 243.788C130.723 238.755 136.02 235.898 141.053 237.4L210.258 258.073C215.291 259.575 218.148 264.872 216.646 269.905L202.825 316.19C201.318 321.217 196.02 324.08 190.993 322.578Z" stroke="#4D2C5E" stroke-opacity="0.1" stroke-width="4" stroke-miterlimit="10" stroke-linecap="round"/>
<path d="M117.031 284.6L204.456 310.717" stroke="#4D2C5E" stroke-opacity="0.1" stroke-width="4" stroke-miterlimit="10" stroke-linecap="round"/>
<path d="M160.958 305.244C160.582 306.499 159.257 307.215 158.001 306.839C156.746 306.464 156.03 305.138 156.406 303.883C156.781 302.627 158.107 301.911 159.362 302.287C160.618 302.662 161.333 303.988 160.958 305.244Z" fill="#4D2C5E"/>
<path d="M166.198 315.179L146.598 309.324L143.957 318.166L163.557 324.021L166.198 315.179Z" stroke="#4D2C5E" stroke-opacity="0.1" stroke-width="4" stroke-miterlimit="10" stroke-linecap="round"/>
<path d="M136.689 316.501L170.526 326.609" stroke="#4D2C5E" stroke-opacity="0.1" stroke-width="4" stroke-miterlimit="10" stroke-linecap="round"/>
<path d="M726.28 144.835C747.974 144.835 765.56 136.499 765.56 126.216C765.56 115.933 747.974 107.597 726.28 107.597C704.586 107.597 687 115.933 687 126.216C687 136.499 704.586 144.835 726.28 144.835Z" stroke="#4D2C5E" stroke-opacity="0.1" stroke-width="3" stroke-miterlimit="10" stroke-linecap="round" stroke-linejoin="round"/>
<path d="M742.165 135.921C753.446 117.393 755.471 98.0376 746.688 92.6904C737.905 87.3432 721.64 98.0288 710.36 116.557C699.079 135.086 697.054 154.441 705.837 159.788C714.619 165.136 730.884 154.45 742.165 135.921Z" stroke="#4D2C5E" stroke-opacity="0.1" stroke-width="3" stroke-miterlimit="10" stroke-linecap="round" stroke-linejoin="round"/>
<path d="M746.68 159.78C755.463 154.433 753.438 135.078 742.157 116.549C730.876 98.0204 714.612 87.3348 705.829 92.682C697.046 98.0292 699.071 117.384 710.352 135.913C721.633 154.442 737.897 165.127 746.68 159.78Z" stroke="#4D2C5E" stroke-opacity="0.1" stroke-width="3" stroke-miterlimit="10" stroke-linecap="round" stroke-linejoin="round"/>
<path d="M726.28 131.145C729.002 131.145 731.209 128.938 731.209 126.216C731.209 123.494 729.002 121.287 726.28 121.287C723.558 121.287 721.351 123.494 721.351 126.216C721.351 128.938 723.558 131.145 726.28 131.145Z" stroke="#4D2C5E" stroke-opacity="0.1" stroke-width="3" stroke-miterlimit="10" stroke-linecap="round" stroke-linejoin="round"/>
<path d="M205.29 576.642L172.856 584.13L171.397 577.807C171.062 576.342 171.969 574.884 173.435 574.542L200.566 568.275C202.031 567.94 203.49 568.847 203.832 570.313L205.29 576.642Z" stroke="#4D2C5E" stroke-opacity="0.1" stroke-width="3" stroke-miterlimit="10" stroke-linecap="round"/>
<path d="M194.629 542.643C208.925 531.116 211.17 510.182 199.643 495.886C188.116 481.59 167.182 479.345 152.886 490.872C138.589 502.399 136.345 523.333 147.872 537.629C159.399 551.925 180.333 554.17 194.629 542.643Z" stroke="#4D2C5E" stroke-opacity="0.1" stroke-width="3" stroke-miterlimit="10"/>
<path d="M189.233 546.175L158.222 487.349L154.349 480.211C134.134 490.866 126.388 515.89 137.044 536.106C147.699 556.322 172.723 564.067 192.939 553.412L189.15 546.224" stroke="#4D2C5E" stroke-opacity="0.1" stroke-width="3" stroke-miterlimit="10" stroke-linecap="round" stroke-linejoin="round"/>
<path d="M165.057 500.239C175.209 494.886 181.914 487.654 180.032 484.084C178.15 480.515 168.394 481.96 158.242 487.313C148.089 492.666 141.385 499.899 143.266 503.469C145.148 507.038 154.904 505.592 165.057 500.239Z" stroke="#4D2C5E" stroke-opacity="0.1" stroke-width="3" stroke-miterlimit="10"/>
<path d="M167.44 549.406C174.607 550.788 182.276 549.846 189.233 546.175C196.191 542.505 201.306 536.713 204.215 530.021C197.049 528.639 189.38 529.581 182.423 533.252C175.458 536.922 170.35 542.714 167.44 549.406Z" stroke="#4D2C5E" stroke-opacity="0.1" stroke-width="3" stroke-miterlimit="10"/>
<path d="M189.259 546.139C197.38 541.858 197.019 525.218 188.454 508.973C179.89 492.728 166.363 483.03 158.242 487.312C150.122 491.593 150.482 508.233 159.047 524.478C167.612 540.723 181.138 550.421 189.259 546.139Z" stroke="#4D2C5E" stroke-opacity="0.1" stroke-width="3" stroke-miterlimit="10"/>
<path d="M144.315 532.268L203.141 501.257" stroke="#4D2C5E" stroke-opacity="0.1" stroke-width="3" stroke-miterlimit="10"/>
<path d="M183.386 557.033L186.819 571.353" stroke="#4D2C5E" stroke-opacity="0.1" stroke-width="3" stroke-miterlimit="10"/>
<path d="M168.962 585.462L210.308 575.547" stroke="#4D2C5E" stroke-opacity="0.1" stroke-width="3" stroke-miterlimit="10" stroke-linecap="round"/>
<path d="M782.729 467.023L800.034 449.719L752.084 401.769L734.779 419.073L782.729 467.023Z" stroke="#4D2C5E" stroke-opacity="0.1" stroke-width="3" stroke-miterlimit="10" stroke-linecap="round" stroke-linejoin="round"/>
<path d="M804.712 471.705L800.028 449.715L782.723 467.021L804.712 471.705Z" stroke="#4D2C5E" stroke-opacity="0.1" stroke-width="3" stroke-miterlimit="10" stroke-linecap="round" stroke-linejoin="round"/>
<path d="M802.527 461.445L794.445 469.519" stroke="#4D2C5E" stroke-opacity="0.1" stroke-width="3" stroke-miterlimit="10" stroke-linecap="round" stroke-linejoin="round"/>
<path d="M729.68 405.881L738.881 396.68C741.12 394.44 744.746 394.44 746.985 396.68L752.073 401.768L734.768 419.073L729.68 413.985C727.44 411.746 727.44 408.112 729.68 405.881Z" stroke="#4D2C5E" stroke-opacity="0.1" stroke-width="3" stroke-miterlimit="10" stroke-linecap="round" stroke-linejoin="round"/>
<path d="M756.75 406.437L739.444 423.75" stroke="#4D2C5E" stroke-opacity="0.1" stroke-width="3" stroke-miterlimit="10" stroke-linecap="round" stroke-linejoin="round"/>
<path d="M791.376 458.368L748.097 415.097" stroke="#4D2C5E" stroke-opacity="0.1" stroke-width="3" stroke-miterlimit="10" stroke-linecap="round" stroke-linejoin="round"/>
</svg>
